<?xml version="1.0" encoding="UTF-8"?>
<svg id="Camada_1" data-name="Camada 1" xmlns="http://www.w3.org/2000/svg" viewBox="0 0 71.69 77.51">
  <defs>
    <style>
      .cls-1 {
        fill: #a3a3a2;
      }
    </style>
  </defs>
  <path class="cls-1" d="M45.38,71.42c-2.14,1.71-5.07,3.17-8.78,4.38-3.64,1.14-7.53,1.71-11.67,1.71-8.63,0-14.95-2.49-18.94-7.48C2,64.97,0,58.05,0,49.29c0-9.41,2.25-16.46,6.74-21.17,4.49-4.7,10.81-7.06,18.94-7.06,2.71,0,5.35,.36,7.92,1.07,2.57,.71,4.85,1.89,6.85,3.53,2,1.64,3.6,3.85,4.82,6.63,1.21,2.78,1.82,6.24,1.82,10.37,0,1.5-.11,3.1-.32,4.81-.14,1.71-.39,3.49-.75,5.35H13.91c.21,4.49,1.36,7.88,3.42,10.16,2.14,2.28,5.57,3.42,10.27,3.42,2.92,0,5.53-.43,7.81-1.28,2.36-.93,4.14-1.85,5.35-2.78l4.6,9.09ZM25.47,32.18c-3.64,0-6.35,1.1-8.13,3.31-1.71,2.14-2.75,5.03-3.1,8.66h19.91c.29-3.85-.32-6.81-1.82-8.87-1.43-2.07-3.71-3.1-6.85-3.1Z"/>
  <path class="cls-1" d="M55.96,22.56h13.91v53.46h-13.91V22.56Zm-2.03-15.08c0-2.07,.75-3.81,2.25-5.24,1.57-1.5,3.71-2.25,6.42-2.25s4.89,.75,6.53,2.25c1.71,1.43,2.57,3.17,2.57,5.24s-.86,3.81-2.57,5.24c-1.64,1.35-3.82,2.03-6.53,2.03s-4.85-.68-6.42-2.03c-1.5-1.43-2.25-3.17-2.25-5.24Z"/>
</svg>