<?xml version="1.0" encoding="UTF-8"?>
<svg id="Camada_1" data-name="Camada 1" xmlns="http://www.w3.org/2000/svg" viewBox="0 0 229.3 58.03">
  <defs>
    <style>
      .cls-1 {
        fill: #111;
      }
    </style>
  </defs>
  <path class="cls-1" d="M0,58.03V2.04H7.25V21.38c3.5-2.98,7.77-4.46,12.82-4.46,10.27,0,15.4,5.1,15.4,15.31v25.8h-7.25v-25.92c0-6.11-3.04-9.16-9.13-9.16-4.15,0-8.1,1.74-11.84,5.21v29.87H0Z"/>
  <path class="cls-1" d="M53.7,16.91V58.03h-7.25V16.91h7.25Zm0-14.88v6.85h-7.25V2.04h7.25Z"/>
  <path class="cls-1" d="M64.67,58.03V14.92c0-9.94,5.64-14.92,16.93-14.92,3.11,0,6.04,.52,8.78,1.57V7.44c-2.59-1.04-5.53-1.57-8.82-1.57-6.43,0-9.64,2.91-9.64,8.73v2.31h12.74v5.87h-12.74V58.03h-7.25Z"/>
  <path class="cls-1" d="M107.95,16.91c11.71,0,17.56,5.78,17.56,17.35,0,1.64-.12,3.41-.35,5.29h-28.89c0,8.4,4.91,12.61,14.74,12.61,4.68,0,8.83-.52,12.46-1.57v5.87c-3.63,1.04-8.05,1.57-13.25,1.57-14.14,0-21.2-7.01-21.2-21.03s6.31-20.09,18.93-20.09Zm-11.68,16.6h22.26c-.16-7.2-3.68-10.81-10.58-10.81-7.32,0-11.21,3.6-11.68,10.81Z"/>
  <path class="cls-1" d="M133.66,58.03V16.91h4.9l1.29,5.25c4.21-3.5,8.83-5.25,13.87-5.25,10.27,0,15.4,5.1,15.4,15.31v25.8h-7.25v-25.92c0-6.11-3.04-9.16-9.13-9.16-4.15,0-8.1,1.74-11.84,5.21v29.87h-7.25Z"/>
  <path class="cls-1" d="M187.36,16.91V58.03h-7.25V16.91h7.25Zm0-14.88v6.85h-7.25V2.04h7.25Z"/>
  <path class="cls-1" d="M197.16,16.91h32.14v5.87l-24.58,29.76h23.79v5.48h-32.14v-5.48l24.89-29.76h-24.1v-5.87Z"/>
</svg>