<?xml version="1.0" encoding="utf-8"?>
<!-- Generator: Adobe Illustrator 27.0.0, SVG Export Plug-In . SVG Version: 6.00 Build 0)  -->
<svg version="1.1" id="Camada_1" xmlns="http://www.w3.org/2000/svg" xmlns:xlink="http://www.w3.org/1999/xlink" x="0px" y="0px"
	 viewBox="0 0 348 36" style="enable-background:new 0 0 348 36;" xml:space="preserve">
<style type="text/css">
	.st0{clip-path:url(#SVGID_00000074406646245829553400000006960216472256243884_);}
	.st1{fill:#65AF2A;}
	.st2{fill:#FFFFFF;}
</style>
<g>
	<defs>
		<rect id="SVGID_1_" y="0" width="348" height="36"/>
	</defs>
	<clipPath id="SVGID_00000088099744079315597510000015428565559026443422_">
		<use xlink:href="#SVGID_1_"  style="overflow:visible;"/>
	</clipPath>
	<g style="clip-path:url(#SVGID_00000088099744079315597510000015428565559026443422_);">
		<path class="st1" d="M0,14C0,6.3,6.3,0,14,0h201.1c7.7,0,14,6.3,14,14v8c0,7.7-6.3,14-14,14H14C6.3,36,0,29.7,0,22V14z"/>
		<path class="st2" d="M47.2,11.1h1.3l0.1,1.9h3.2l-0.3,1.7h-2.9l-1.4,6.7C47,22.5,47.3,23,48.3,23h1.4l-0.3,1.7h-2
			c-2,0-2.7-1.1-2.3-3.2L47.2,11.1z"/>
		<path class="st2" d="M59.2,13c3.1,0,4.4,1.1,3.9,3.3c-0.4,2.2-2,3.2-4.8,3.2h-3.7C54.1,21.8,55,23,57.2,23c1.7,0,3.2-0.5,4.4-1.5
			l-0.3,1.7c-1.2,1-2.7,1.5-4.4,1.5c-3.6,0-5-2-4.2-6C53.4,14.9,55.6,13,59.2,13z M54.9,17.9h3.7c1.4,0,2.2-0.5,2.4-1.5
			c0.2-1.1-0.5-1.7-2.2-1.7C56.8,14.7,55.4,15.7,54.9,17.9z"/>
		<path class="st2" d="M64.1,24.8L66.5,13h1.8l-0.5,3.5C69.2,14.2,71,13,73,13c1.9,0,2.6,1.1,2.1,3.4c1.4-2.3,3.2-3.4,5.2-3.4
			s2.7,1.3,2.2,3.8l-1.6,8h-2.1l1.6-8c0.3-1.4-0.1-2.1-1.2-2.1c-1.5,0-2.9,1.2-4.4,3.7l-1.3,6.3h-2.1l1.6-8c0.3-1.4-0.1-2.1-1.2-2.1
			c-1.5,0-3,1.2-4.4,3.7l-1.3,6.3h-2V24.8z"/>
		<path class="st2" d="M89.9,24.8l3.2-16h2.1l-1.5,7.7c1.5-2.3,3.3-3.4,5.5-3.4c2.2,0,3,1.3,2.5,3.8l-1.6,7.9H98l1.6-8
			c0.3-1.4-0.3-2.1-1.6-2.1c-1.6,0-3.1,1.2-4.7,3.7L92,24.8H89.9z"/>
		<path class="st2" d="M108.1,13l-2.3,11.7h-2.1L106,13H108.1z M108.2,8.8h2.7l-3.2,2.7h-1.8L108.2,8.8z"/>
		<path class="st2" d="M113.7,13h3.6l-0.3,1.7h-3.6l-1.8,9.2c-0.5,2.4-1.4,4.2-2.8,5.3l-1.5-1.2c1.1-1,1.9-2.4,2.2-4.2l2.3-11.4
			c0.6-2.8,2.4-4.3,5.5-4.3c1,0,1.8,0.1,2.6,0.4l-0.3,1.7c-0.8-0.3-1.6-0.4-2.7-0.4c-1.7,0-2.7,0.8-3,2.5L113.7,13z"/>
		<path class="st2" d="M124.2,13c3.1,0,4.4,1.1,3.9,3.3c-0.4,2.2-2,3.2-4.8,3.2h-3.7c-0.5,2.3,0.4,3.5,2.6,3.5
			c1.7,0,3.2-0.5,4.4-1.5l-0.3,1.7c-1.2,1-2.7,1.5-4.4,1.5c-3.6,0-5-2-4.2-6C118.4,14.9,120.6,13,124.2,13z M119.9,17.9h3.7
			c1.4,0,2.2-0.5,2.4-1.5c0.2-1.1-0.5-1.7-2.2-1.7C121.8,14.7,120.5,15.7,119.9,17.9z"/>
		<path class="st2" d="M129.2,24.8l2.3-11.7h1.8l-0.5,3.6c1.5-2.4,3.3-3.6,5.5-3.6s3,1.3,2.5,3.8l-1.6,7.9h-2.1l1.6-8
			c0.3-1.4-0.3-2.1-1.6-2.1c-1.6,0-3.1,1.2-4.7,3.7l-1.3,6.3L129.2,24.8L129.2,24.8z"/>
		<path class="st2" d="M14.2,18c0.4,0,0.8,0.1,1.1,0.4c0.6,0.6,1.2,1.2,1.8,1.8c0.1,0.1,0.2,0.1,0.3,0c0.4-0.5,0.9-0.9,1.4-1.4
			c0.4-0.4,0.9-0.9,1.3-1.3c0.6-0.6,1.1-1.1,1.7-1.6c0.4-0.4,0.7-0.7,1-1.1c0.4-0.4,0.8-0.8,1.2-1.2c0.4-0.4,0.9-0.9,1.3-1.3
			c0.5-0.5,1.3-0.6,1.9-0.2c0.6,0.4,0.8,1.2,0.5,1.8c-0.1,0.2-0.2,0.4-0.4,0.5c-3,3-5.9,5.9-8.9,8.9c-0.3,0.3-0.6,0.5-1.1,0.6
			c-0.4,0-0.8-0.1-1.1-0.4c-0.8-0.8-1.6-1.6-2.3-2.3c-0.2-0.2-0.5-0.5-0.7-0.7c-0.4-0.4-0.5-0.9-0.4-1.5c0.2-0.5,0.5-0.9,1.1-1
			C14,18,14.1,18,14.2,18z"/>
	</g>
</g>
</svg>
