<?xml version="1.0" encoding="utf-8"?>
<!-- Generator: Adobe Illustrator 27.0.0, SVG Export Plug-In . SVG Version: 6.00 Build 0)  -->
<svg version="1.1" id="Camada_1" xmlns="http://www.w3.org/2000/svg" xmlns:xlink="http://www.w3.org/1999/xlink" x="0px" y="0px"
	 viewBox="0 0 348 36.1" style="enable-background:new 0 0 348 36.1;" xml:space="preserve">
<style type="text/css">
	.st0{fill:#FFFFFF;}
	.st1{fill:#AF2A2A;}
	.st2{fill:none;}
	.st3{fill:none;stroke:#433F3F;stroke-width:7;}
</style>
<g>
	<g>
		<path class="st0" d="M47.2,11.2h1.3l0.1,1.9h3.2l-0.3,1.7h-2.9l-1.4,6.7c-0.2,1.1,0.1,1.6,1.1,1.6h1.4l-0.3,1.7h-2
			c-2,0-2.7-1.1-2.3-3.2L47.2,11.2z"/>
		<path class="st0" d="M59.2,13.1c3.1,0,4.4,1.1,3.9,3.3c-0.4,2.2-2,3.2-4.8,3.2h-3.7c-0.5,2.3,0.4,3.5,2.6,3.5
			c1.7,0,3.2-0.5,4.4-1.5l-0.3,1.7c-1.2,1-2.7,1.5-4.4,1.5c-3.6,0-5-2-4.2-6C53.4,15,55.6,13.1,59.2,13.1z M54.9,18h3.7
			c1.4,0,2.2-0.5,2.4-1.5c0.2-1.1-0.5-1.7-2.2-1.7C56.8,14.8,55.4,15.8,54.9,18z"/>
		<path class="st0" d="M64.1,24.9l2.4-11.8h1.8l-0.5,3.5c1.4-2.3,3.2-3.5,5.2-3.5s2.6,1.1,2.1,3.4c1.4-2.3,3.2-3.4,5.2-3.4
			s2.7,1.3,2.2,3.8l-1.6,8h-2.1l1.6-8c0.3-1.4-0.1-2.1-1.2-2.1c-1.5,0-2.9,1.2-4.4,3.7l-1.3,6.3h-2.1l1.6-8c0.3-1.4-0.1-2.1-1.2-2.1
			c-1.5,0-3,1.2-4.4,3.7l-1.3,6.3h-2C64.1,24.7,64.1,24.9,64.1,24.9z"/>
		<path class="st0" d="M89.9,24.9l3.2-16h2.1l-1.5,7.7c1.5-2.3,3.3-3.4,5.5-3.4s3,1.3,2.5,3.8l-1.6,7.9H98l1.6-8
			c0.3-1.4-0.3-2.1-1.6-2.1c-1.6,0-3.1,1.2-4.7,3.7L92,24.9H89.9z"/>
		<path class="st0" d="M108.1,13.1l-2.3,11.7h-2.1l2.3-11.7C106,13.1,108.1,13.1,108.1,13.1z M108.2,8.9h2.7l-3.2,2.7h-1.8
			L108.2,8.9z"/>
		<path class="st0" d="M113.7,13.1h3.6l-0.3,1.7h-3.6l-1.8,9.2c-0.5,2.4-1.4,4.2-2.8,5.3l-1.5-1.2c1.1-1,1.9-2.4,2.2-4.2l2.3-11.4
			c0.6-2.8,2.4-4.3,5.5-4.3c1,0,1.8,0.1,2.6,0.4l-0.3,1.7c-0.8-0.3-1.6-0.4-2.7-0.4c-1.7,0-2.7,0.8-3,2.5
			C113.9,12.4,113.7,13.1,113.7,13.1z"/>
		<path class="st0" d="M124.2,13.1c3.1,0,4.4,1.1,3.9,3.3c-0.4,2.2-2,3.2-4.8,3.2h-3.7c-0.5,2.3,0.4,3.5,2.6,3.5
			c1.7,0,3.2-0.5,4.4-1.5l-0.3,1.7c-1.2,1-2.7,1.5-4.4,1.5c-3.6,0-5-2-4.2-6C118.4,15,120.6,13.1,124.2,13.1z M119.9,18h3.7
			c1.4,0,2.2-0.5,2.4-1.5c0.2-1.1-0.5-1.7-2.2-1.7C121.8,14.8,120.5,15.8,119.9,18z"/>
		<path class="st0" d="M129.2,24.9l2.3-11.7h1.8l-0.5,3.6c1.5-2.4,3.3-3.6,5.5-3.6s3,1.3,2.5,3.8l-1.6,7.9h-2.1l1.6-8
			c0.3-1.4-0.3-2.1-1.6-2.1c-1.6,0-3.1,1.2-4.7,3.7l-1.3,6.3h-1.9V24.9z"/>
		<path class="st0" d="M14.2,18.1c0.4,0,0.8,0.1,1.1,0.4c0.6,0.6,1.2,1.2,1.8,1.8c0.1,0.1,0.2,0.1,0.3,0c0.4-0.5,0.9-0.9,1.4-1.4
			c0.4-0.4,0.9-0.9,1.3-1.3c0.6-0.6,1.1-1.1,1.7-1.6c0.4-0.4,0.7-0.7,1-1.1c0.4-0.4,0.8-0.8,1.2-1.2c0.4-0.4,0.9-0.9,1.3-1.3
			c0.5-0.5,1.3-0.6,1.9-0.2c0.6,0.4,0.8,1.2,0.5,1.8c-0.1,0.2-0.2,0.4-0.4,0.5l-8.9,8.9c-0.3,0.3-0.6,0.5-1.1,0.6
			c-0.4,0-0.8-0.1-1.1-0.4c-0.8-0.8-1.6-1.6-2.3-2.3c-0.2-0.2-0.5-0.5-0.7-0.7c-0.4-0.4-0.5-0.9-0.4-1.5c0.2-0.5,0.5-0.9,1.1-1H14.2
			z"/>
		<path class="st1" d="M16.9,0H213c9.3,0,16.9,7.5,16.9,16.9v2.4c0,9.3-7.5,16.9-16.9,16.9H16.9C7.5,36.1,0,28.6,0,19.3v-2.4
			C0,7.5,7.5,0,16.9,0z"/>
		<path class="st0" d="M40.9,24l2.2-11h1.7l-0.5,3.4c1.4-2.3,3.1-3.4,5.1-3.4s2.8,1.2,2.3,3.6L50.3,24h-1.9l1.5-7.5
			c0.3-1.3-0.2-1.9-1.5-1.9c-1.5,0-2.9,1.2-4.3,3.5L42.9,24H40.9z"/>
		<path class="st0" d="M62.1,14.8c-0.3-0.2-1-0.2-2-0.2c-2.3,0-3.7,1.3-4.3,4c-0.5,2.5,0,3.7,1.4,3.7s2.8-0.9,3.9-2.7L62.1,14.8
			L62.1,14.8z M62.2,24h-1.7l0.3-2.6c-1.2,1.8-2.6,2.6-4.2,2.6c-2.5,0-3.4-1.8-2.7-5.4c0.8-3.8,2.9-5.6,6.6-5.6
			c1.5,0,2.7,0.1,3.8,0.4L62.2,24z M58.4,9.5c0.5-0.3,1-0.5,1.4-0.5s0.7,0.1,1.1,0.3s0.7,0.3,1.1,0.3c0.5,0,1.1-0.2,1.6-0.5
			l-0.3,1.6c-0.5,0.3-1,0.5-1.4,0.5s-0.7-0.1-1.1-0.3s-0.7-0.3-1.1-0.3c-0.5,0-1.1,0.2-1.6,0.5L58.4,9.5z"/>
		<path class="st0" d="M67.9,18.4c-0.5,2.6,0.2,4,2.3,4s3.3-1.3,3.8-4c0.5-2.6-0.2-3.9-2.3-3.9S68.4,15.8,67.9,18.4z M65.9,18.4
			c0.7-3.7,2.8-5.5,6.1-5.5s4.6,1.8,3.9,5.5s-2.8,5.5-6.1,5.5S65.2,22.1,65.9,18.4z"/>
		<path class="st0" d="M85.1,11.2h1.2l0.1,1.8h2.9L89,14.5h-2.7L85,20.8c-0.2,1,0.1,1.5,1,1.5h1.3L87,23.9h-1.8c-1.8,0-2.5-1-2.2-3
			L85.1,11.2L85.1,11.2z"/>
		<path class="st0" d="M96.3,12.9c2.8,0,4.1,1,3.7,3.1c-0.4,2-1.9,3-4.5,3H92c-0.4,2.2,0.4,3.3,2.4,3.3c1.6,0,2.9-0.5,4.1-1.4
			l-0.3,1.6c-1.1,0.9-2.5,1.4-4.1,1.4c-3.3,0-4.6-1.9-3.9-5.6C90.9,14.7,93,12.9,96.3,12.9L96.3,12.9z M92.3,17.5h3.5
			c1.3,0,2.1-0.5,2.3-1.5c0.2-1-0.5-1.5-2.1-1.5C94,14.5,92.8,15.5,92.3,17.5L92.3,17.5z"/>
		<path class="st0" d="M100.9,24l2.2-11h1.7l-0.4,3.3c1.3-2.2,2.9-3.3,4.8-3.3c1.7,0,2.4,1.1,2,3.2c1.3-2.1,3-3.2,4.9-3.2
			s2.5,1.2,2,3.5l-1.5,7.5h-1.9l1.5-7.5c0.3-1.3-0.1-1.9-1.2-1.9c-1.4,0-2.7,1.2-4.1,3.5l-1.2,5.9h-1.9l1.5-7.5
			c0.3-1.3-0.1-1.9-1.1-1.9c-1.4,0-2.8,1.2-4.1,3.5l-1.2,5.9H100.9L100.9,24z"/>
		<path class="st0" d="M124.8,24l3-15h1.9l-1.4,7.2c1.4-2.1,3-3.2,5.1-3.2s2.8,1.2,2.3,3.6l-1.5,7.4h-1.9l1.5-7.5
			c0.3-1.3-0.2-1.9-1.5-1.9c-1.4,0-2.9,1.2-4.3,3.5l-1.2,5.9H124.8L124.8,24z"/>
		<path class="st0" d="M141.7,12.9l-2.2,11h-1.9l2.2-11C139.7,12.9,141.7,12.9,141.7,12.9z M141.8,9h2.5l-3,2.5h-1.7L141.8,9z"/>
		<path class="st0" d="M146.9,12.9h3.4l-0.3,1.6h-3.4l-1.7,8.6c-0.4,2.2-1.3,3.9-2.6,5l-1.4-1.1c1.1-0.9,1.7-2.2,2.1-3.9l2.1-10.7
			c0.5-2.7,2.2-4,5.1-4c0.9,0,1.7,0.1,2.4,0.4l-0.3,1.6c-0.7-0.3-1.5-0.4-2.5-0.4c-1.6,0-2.5,0.8-2.8,2.3L146.9,12.9L146.9,12.9z"/>
		<path class="st0" d="M156.7,12.9c2.9,0,4.1,1,3.6,3.1c-0.4,2-1.9,3-4.5,3h-3.5c-0.4,2.2,0.4,3.3,2.4,3.3c1.6,0,2.9-0.5,4.1-1.4
			l-0.3,1.6c-1.1,0.9-2.5,1.4-4.1,1.4c-3.3,0-4.6-1.9-3.9-5.6C151.3,14.7,153.3,12.9,156.7,12.9L156.7,12.9z M152.7,17.5h3.5
			c1.3,0,2.1-0.5,2.3-1.5s-0.5-1.5-2.1-1.5C154.4,14.5,153.2,15.5,152.7,17.5L152.7,17.5z"/>
		<path class="st0" d="M161.3,24l2.2-11h1.7l-0.5,3.4c1.4-2.3,3.1-3.4,5.1-3.4s2.8,1.2,2.3,3.6l-1.5,7.4h-1.9l1.5-7.5
			c0.3-1.3-0.2-1.9-1.5-1.9c-1.4,0-2.9,1.2-4.3,3.5l-1.2,5.9H161.3z"/>
		<rect x="9.6" y="9.6" class="st2" width="16.4" height="16.4"/>
		<path class="st0" d="M29,12.4c0,0.3-0.1,0.6-0.4,0.9c-1.3,1.3-2.6,2.6-3.9,3.8c-0.4,0.4-0.8,0.8-1.2,1.2c-0.1,0.1-0.1,0.2,0,0.3
			c1.7,1.7,3.4,3.3,5,5c0.7,0.7,0.6,1.7-0.2,2.2c-0.5,0.4-1.3,0.3-1.8-0.2c-1.1-1.1-2.2-2.2-3.3-3.3c-0.6-0.6-1.1-1.1-1.7-1.7
			c-0.1-0.1-0.2-0.1-0.3,0c-1.6,1.7-3.3,3.3-5,5c-0.5,0.5-1.2,0.6-1.8,0.2c-0.8-0.5-0.9-1.5-0.2-2.2c1-1,2-2,3.1-3.1
			c0.6-0.6,1.3-1.3,2-2c0.1-0.1,0.1-0.2,0-0.3c-1.7-1.7-3.3-3.3-5-5c-0.4-0.4-0.6-0.9-0.4-1.4c0.2-0.5,0.5-0.9,1.1-1
			c0.5-0.1,0.9,0.1,1.3,0.4c1.4,1.4,2.7,2.7,4,4c0.3,0.3,0.6,0.6,1,0.9c0.1,0.1,0.2,0.1,0.3,0c1.7-1.7,3.3-3.3,5-5
			c0.4-0.4,0.9-0.6,1.5-0.4C28.6,11.1,29,11.6,29,12.4L29,12.4z"/>
	</g>
</g>
<path class="st3" d="M235.7,19h105.6"/>
</svg>
