<?xml version="1.0" encoding="UTF-8"?>
<svg id="Camada_1" data-name="Camada 1" xmlns="http://www.w3.org/2000/svg" xmlns:xlink="http://www.w3.org/1999/xlink" viewBox="0 0 348 36.12">
  <defs>
    <style>
      .cls-1 {
        fill: #fff;
      }

      .cls-2 {
        stroke: #433f3f;
        stroke-width: 7px;
      }

      .cls-2, .cls-3 {
        fill: none;
      }

      .cls-4 {
        fill: #af2a2a;
      }

      .cls-5 {
        clip-path: url(#clippath);
      }
    </style>
    <clipPath id="clippath">
      <rect class="cls-3" y=".12" width="348" height="36"/>
    </clipPath>
  </defs>
  <g class="cls-5">
    <g>
      <path class="cls-2" d="M242.4,19.42h105.6"/>
      <path class="cls-1" d="M47.2,11.22h1.3l.1,1.9h3.2l-.3,1.7h-2.9l-1.4,6.7c-.2,1.1,.1,1.6,1.1,1.6h1.4l-.3,1.7h-2c-2,0-2.7-1.1-2.3-3.2l2.1-10.4Z"/>
      <path class="cls-1" d="M59.2,13.12c3.1,0,4.4,1.1,3.9,3.3-.4,2.2-2,3.2-4.8,3.2h-3.7c-.5,2.3,.4,3.5,2.6,3.5,1.7,0,3.2-.5,4.4-1.5l-.3,1.7c-1.2,1-2.7,1.5-4.4,1.5-3.6,0-5-2-4.2-6,.7-3.8,2.9-5.7,6.5-5.7Zm-4.3,4.9h3.7c1.4,0,2.2-.5,2.4-1.5,.2-1.1-.5-1.7-2.2-1.7-2,0-3.4,1-3.9,3.2Z"/>
      <path class="cls-1" d="M64.1,24.92l2.4-11.8h1.8l-.5,3.5c1.4-2.3,3.2-3.5,5.2-3.5s2.6,1.1,2.1,3.4c1.4-2.3,3.2-3.4,5.2-3.4s2.7,1.3,2.2,3.8l-1.6,8h-2.1l1.6-8c.3-1.4-.1-2.1-1.2-2.1-1.5,0-2.9,1.2-4.4,3.7l-1.3,6.3h-2.1l1.6-8c.3-1.4-.1-2.1-1.2-2.1-1.5,0-3,1.2-4.4,3.7l-1.3,6.3h-2v.2Z"/>
      <path class="cls-1" d="M89.9,24.92l3.2-16h2.1l-1.5,7.7c1.5-2.3,3.3-3.4,5.5-3.4s3,1.3,2.5,3.8l-1.6,7.9h-2.1l1.6-8c.3-1.4-.3-2.1-1.6-2.1-1.6,0-3.1,1.2-4.7,3.7l-1.3,6.4h-2.1Z"/>
      <path class="cls-1" d="M108.1,13.12l-2.3,11.7h-2.1l2.3-11.7h2.1Zm.1-4.2h2.7l-3.2,2.7h-1.8l2.3-2.7Z"/>
      <path class="cls-1" d="M113.7,13.12h3.6l-.3,1.7h-3.6l-1.8,9.2c-.5,2.4-1.4,4.2-2.8,5.3l-1.5-1.2c1.1-1,1.9-2.4,2.2-4.2l2.3-11.4c.6-2.8,2.4-4.3,5.5-4.3,1,0,1.8,.1,2.6,.4l-.3,1.7c-.8-.3-1.6-.4-2.7-.4-1.7,0-2.7,.8-3,2.5l-.2,.7Z"/>
      <path class="cls-1" d="M124.2,13.12c3.1,0,4.4,1.1,3.9,3.3-.4,2.2-2,3.2-4.8,3.2h-3.7c-.5,2.3,.4,3.5,2.6,3.5,1.7,0,3.2-.5,4.4-1.5l-.3,1.7c-1.2,1-2.7,1.5-4.4,1.5-3.6,0-5-2-4.2-6,.7-3.8,2.9-5.7,6.5-5.7Zm-4.3,4.9h3.7c1.4,0,2.2-.5,2.4-1.5,.2-1.1-.5-1.7-2.2-1.7-2,0-3.3,1-3.9,3.2Z"/>
      <path class="cls-1" d="M129.2,24.92l2.3-11.7h1.8l-.5,3.6c1.5-2.4,3.3-3.6,5.5-3.6s3,1.3,2.5,3.8l-1.6,7.9h-2.1l1.6-8c.3-1.4-.3-2.1-1.6-2.1-1.6,0-3.1,1.2-4.7,3.7l-1.3,6.3h-1.9v.1Z"/>
      <path class="cls-1" d="M14.2,18.12c.4,0,.8,.1,1.1,.4,.6,.6,1.2,1.2,1.8,1.8,.1,.1,.2,.1,.3,0,.4-.5,.9-.9,1.4-1.4,.4-.4,.9-.9,1.3-1.3,.6-.6,1.1-1.1,1.7-1.6,.4-.4,.7-.7,1-1.1,.4-.4,.8-.8,1.2-1.2,.4-.4,.9-.9,1.3-1.3,.5-.5,1.3-.6,1.9-.2,.6,.4,.8,1.2,.5,1.8-.1,.2-.2,.4-.4,.5l-8.9,8.9c-.3,.3-.6,.5-1.1,.6-.4,0-.8-.1-1.1-.4-.8-.8-1.6-1.6-2.3-2.3-.2-.2-.5-.5-.7-.7-.4-.4-.5-.9-.4-1.5,.2-.5,.5-.9,1.1-1h.3Z"/>
      <rect class="cls-4" width="229.84" height="36.12" rx="16.86" ry="16.86"/>
      <path class="cls-1" d="M40.93,23.96l2.18-11h1.71l-.47,3.4c1.38-2.26,3.08-3.4,5.11-3.4s2.81,1.19,2.34,3.57l-1.47,7.43h-1.92l1.47-7.46c.26-1.29-.25-1.93-1.52-1.93-1.45,0-2.89,1.16-4.34,3.49l-1.17,5.9h-1.92Z"/>
      <path class="cls-1" d="M62.13,14.82c-.35-.17-1-.25-1.97-.25-2.32,0-3.74,1.34-4.27,4.01-.49,2.47-.02,3.7,1.41,3.7s2.78-.89,3.88-2.66l.94-4.8Zm.11,9.14h-1.71l.31-2.62c-1.16,1.75-2.56,2.62-4.19,2.62-2.48,0-3.36-1.78-2.66-5.35,.75-3.77,2.94-5.65,6.57-5.65,1.47,0,2.73,.15,3.77,.45l-2.09,10.55Zm-3.85-14.5c.48-.32,.96-.48,1.44-.48,.36,0,.72,.09,1.09,.27,.37,.18,.74,.27,1.13,.27,.52,0,1.06-.16,1.61-.48l-.31,1.57c-.48,.32-.96,.48-1.44,.48-.36,0-.72-.09-1.09-.27-.37-.18-.74-.27-1.13-.27-.52,0-1.06,.16-1.61,.48l.31-1.57Z"/>
      <path class="cls-1" d="M67.87,18.41c-.53,2.65,.23,3.97,2.27,3.97s3.33-1.32,3.85-3.97c.51-2.59-.25-3.89-2.29-3.89s-3.32,1.3-3.83,3.89Zm-1.93,.04c.73-3.67,2.75-5.5,6.07-5.5s4.62,1.83,3.89,5.5c-.73,3.66-2.75,5.49-6.07,5.49s-4.61-1.83-3.89-5.49Z"/>
      <path class="cls-1" d="M85.14,11.17h1.2l.06,1.78h2.95l-.31,1.57h-2.65l-1.26,6.32c-.2,1.03,.14,1.54,1.02,1.54h1.33l-.31,1.57h-1.83c-1.83,0-2.54-.99-2.15-2.97l1.94-9.82Z"/>
      <path class="cls-1" d="M96.3,12.95c2.85,0,4.07,1.04,3.65,3.13-.4,2.02-1.9,3.03-4.49,3.03h-3.48c-.43,2.18,.38,3.27,2.43,3.27,1.58,0,2.95-.45,4.09-1.36l-.31,1.57c-1.14,.91-2.51,1.36-4.09,1.36-3.33,0-4.62-1.88-3.88-5.63,.71-3.58,2.74-5.38,6.08-5.38Zm-4,4.55h3.48c1.31,0,2.07-.48,2.26-1.45,.2-1.03-.48-1.55-2.06-1.55-1.94,0-3.17,1-3.69,3Z"/>
      <path class="cls-1" d="M100.89,23.96l2.18-11h1.71l-.44,3.27c1.27-2.18,2.87-3.27,4.8-3.27,1.73,0,2.38,1.06,1.96,3.19,1.34-2.12,2.96-3.19,4.87-3.19s2.48,1.18,2.01,3.54l-1.47,7.46h-1.92l1.47-7.46c.26-1.29-.13-1.93-1.15-1.93-1.37,0-2.73,1.16-4.08,3.49l-1.17,5.9h-1.92l1.47-7.46c.26-1.29-.12-1.93-1.13-1.93-1.43,0-2.79,1.16-4.1,3.49l-1.17,5.9h-1.92Z"/>
      <path class="cls-1" d="M124.83,23.96l2.97-14.99h1.92l-1.42,7.17c1.35-2.12,3.04-3.19,5.07-3.19s2.81,1.19,2.34,3.57l-1.47,7.43h-1.92l1.47-7.46c.26-1.29-.25-1.93-1.52-1.93-1.45,0-2.89,1.16-4.34,3.49l-1.17,5.9h-1.92Z"/>
      <path class="cls-1" d="M141.66,12.95l-2.18,11h-1.92l2.18-11h1.92Zm.13-3.98h2.48l-2.98,2.5h-1.7l2.2-2.5Z"/>
      <path class="cls-1" d="M146.91,12.95h3.37l-.31,1.57h-3.37l-1.7,8.59c-.44,2.22-1.31,3.89-2.61,5.01l-1.39-1.1c1.05-.94,1.74-2.25,2.08-3.91l2.12-10.7c.53-2.66,2.21-3.99,5.07-3.99,.89,0,1.71,.14,2.45,.42l-.31,1.57c-.7-.28-1.52-.42-2.46-.42-1.56,0-2.5,.78-2.81,2.34l-.11,.62Z"/>
      <path class="cls-1" d="M156.67,12.95c2.85,0,4.07,1.04,3.65,3.13-.4,2.02-1.9,3.03-4.5,3.03h-3.48c-.43,2.18,.38,3.27,2.43,3.27,1.58,0,2.95-.45,4.09-1.36l-.31,1.57c-1.14,.91-2.51,1.36-4.09,1.36-3.33,0-4.62-1.88-3.88-5.63,.71-3.58,2.74-5.38,6.08-5.38Zm-4,4.55h3.48c1.31,0,2.07-.48,2.26-1.45,.2-1.03-.48-1.55-2.06-1.55-1.94,0-3.17,1-3.69,3Z"/>
      <path class="cls-1" d="M161.27,23.96l2.18-11h1.71l-.47,3.4c1.38-2.26,3.08-3.4,5.11-3.4s2.81,1.19,2.34,3.57l-1.47,7.43h-1.92l1.47-7.46c.26-1.29-.25-1.93-1.52-1.93-1.45,0-2.89,1.16-4.34,3.49l-1.17,5.9h-1.92Z"/>
      <rect class="cls-3" x="9.63" y="9.63" width="16.42" height="16.42"/>
      <path class="cls-1" d="M29.03,12.36c0,.29-.14,.62-.41,.89-1.28,1.28-2.57,2.57-3.86,3.85-.41,.41-.81,.82-1.22,1.22-.11,.11-.09,.17,.01,.27,1.68,1.67,3.36,3.34,5.03,5.02,.68,.68,.58,1.69-.2,2.2-.54,.36-1.26,.27-1.76-.22-1.1-1.1-2.2-2.2-3.3-3.3-.57-.57-1.14-1.13-1.69-1.7-.13-.14-.2-.15-.34,0-1.65,1.67-3.31,3.32-4.97,4.98-.52,.52-1.24,.61-1.8,.24-.76-.51-.86-1.51-.21-2.17,1.02-1.03,2.05-2.05,3.07-3.08,.65-.65,1.3-1.3,1.95-1.95,.12-.12,.14-.18,0-.31-1.67-1.67-3.34-3.34-5.01-5.01-.4-.4-.55-.89-.38-1.44,.16-.53,.54-.86,1.08-.96,.5-.09,.92,.07,1.28,.43,1.35,1.35,2.69,2.7,4.04,4.04,.32,.32,.64,.63,.95,.95,.12,.12,.18,.14,.31,0,1.66-1.67,3.33-3.33,4.99-5,.42-.42,.92-.57,1.5-.38,.56,.19,.94,.72,.94,1.41Z"/>
    </g>
  </g>
</svg>