<?xml version="1.0" encoding="utf-8"?>
<!-- Generator: Adobe Illustrator 27.0.0, SVG Export Plug-In . SVG Version: 6.00 Build 0)  -->
<svg version="1.1" id="Camada_1" xmlns="http://www.w3.org/2000/svg" xmlns:xlink="http://www.w3.org/1999/xlink" x="0px" y="0px"
	 viewBox="0 0 461 169" style="enable-background:new 0 0 461 169;" xml:space="preserve">
<style type="text/css">
	.st0{fill:#C6C6C3;}
</style>
<g>
	<path d="M0,105.8V27.9h10.1v26.9c4.9-4.1,10.8-6.2,17.8-6.2c14.3,0,21.4,7.1,21.4,21.3v35.9H39.3V69.7C39.3,61.2,35,57,26.6,57
		c-5.8,0-11.3,2.4-16.5,7.2v41.6H0z"/>
	<path d="M74.7,48.6v57.2H64.6V48.6H74.7z M74.7,27.9v9.5H64.6v-9.5H74.7z"/>
	<path d="M90,105.8v-60C90,32,97.8,25,113.5,25c4.3,0,8.4,0.7,12.2,2.2v8.2c-3.6-1.5-7.7-2.2-12.3-2.2c-8.9,0-13.4,4-13.4,12.1v3.2
		h17.7v8.2h-17.7v49H90z"/>
	<path d="M150.2,48.6c16.3,0,24.4,8,24.4,24.1c0,2.3-0.2,4.7-0.5,7.4h-40.2c0,11.7,6.8,17.5,20.5,17.5c6.5,0,12.3-0.7,17.3-2.2v8.2
		c-5.1,1.5-11.2,2.2-18.4,2.2c-19.7,0-29.5-9.8-29.5-29.3C123.9,57.9,132.6,48.6,150.2,48.6z M133.9,71.7h31c-0.2-10-5.1-15-14.7-15
		C140,56.6,134.6,61.6,133.9,71.7z"/>
	<path d="M186,105.8V48.6h6.8l1.8,7.3c5.9-4.9,12.3-7.3,19.3-7.3c14.3,0,21.4,7.1,21.4,21.3v35.9h-10.1V69.7
		c0-8.5-4.2-12.7-12.7-12.7c-5.8,0-11.3,2.4-16.5,7.2v41.6H186z"/>
	<path d="M260.7,48.6v57.2h-10.1V48.6H260.7z M260.7,27.9v9.5h-10.1v-9.5H260.7z"/>
	<path d="M274.3,48.6H319v8.2l-34.2,41.4h33.1v7.6h-44.7v-7.6l34.6-41.4h-33.5V48.6z"/>
	<path class="st0" d="M328.5,95.9c0-3.5,1.1-6.2,3.3-8.2c2.2-2.1,5.1-3.1,8.6-3.1c3.8,0,6.8,1,8.9,3.1c2.2,2,3.3,4.7,3.3,8.2
		c0,3.5-1.1,6.2-3.3,8.3c-2.2,2.1-5.2,3.1-8.9,3.1c-3.6,0-6.5-1-8.6-3.1C329.6,102.2,328.5,99.4,328.5,95.9z"/>
	<path class="st0" d="M424,99.4c-3,2.4-7,4.4-12.2,6.1c-5.1,1.6-10.5,2.4-16.2,2.4c-12,0-20.8-3.5-26.4-10.4
		c-5.6-7-8.3-16.7-8.3-28.9c0-13.1,3.1-22.9,9.4-29.5c6.3-6.5,15-9.8,26.4-9.8c3.8,0,7.4,0.5,11,1.5c3.6,1,6.8,2.6,9.5,4.9
		c2.8,2.3,5,5.4,6.7,9.2c1.7,3.9,2.5,8.7,2.5,14.4c0,2.1-0.1,4.3-0.4,6.7c-0.2,2.4-0.5,4.9-1,7.4h-44.7c0.3,6.2,1.9,11,4.8,14.1
		c3,3.2,7.7,4.8,14.3,4.8c4.1,0,7.7-0.6,10.9-1.8c3.3-1.3,5.8-2.6,7.4-3.9L424,99.4z M396.3,44.8c-5.1,0-8.8,1.5-11.3,4.6
		c-2.4,3-3.8,7-4.3,12h27.7c0.4-5.4-0.4-9.5-2.5-12.3C403.8,46.2,400.7,44.8,396.3,44.8z"/>
	<path class="st0" d="M438.7,31.4h19.4v74.4h-19.4V31.4z M435.9,10.4c0-2.9,1-5.3,3.1-7.3c2.2-2.1,5.2-3.1,8.9-3.1
		c3.8,0,6.8,1,9.1,3.1c2.4,2,3.6,4.4,3.6,7.3c0,2.9-1.2,5.3-3.6,7.3c-2.3,1.9-5.3,2.8-9.1,2.8c-3.8,0-6.8-0.9-8.9-2.8
		C436.9,15.7,435.9,13.3,435.9,10.4z"/>
</g>
</svg>
