<?xml version="1.0" encoding="UTF-8"?>
<svg id="Camada_1" data-name="Camada 1" xmlns="http://www.w3.org/2000/svg" viewBox="0 0 327.06 29.69">
  <defs>
    <style>
      .cls-1 {
        fill: #a3a3a2;
      }
    </style>
  </defs>
  <path class="cls-1" d="M0,5.22H1.47l.38,3.39h6.27v1.79H2.03v13.2c0,2.75,1.01,4.12,3.03,4.12h3.07v1.79h-3.03c-3.4,0-5.1-1.88-5.1-5.64V5.22Z"/>
  <path class="cls-1" d="M21.01,8.6c5.72,0,8.58,3.17,8.58,9.5,0,.45-.01,.92-.04,1.41H13.68c0,5.47,2.89,8.21,8.68,8.21,2.38,0,4.49-.33,6.33-1v1.79c-1.85,.66-3.96,1-6.33,1-7.18,0-10.77-3.56-10.77-10.69s3.14-10.22,9.42-10.22Zm-7.33,9.04h13.9c-.08-4.86-2.27-7.29-6.57-7.29-4.65,0-7.09,2.43-7.33,7.29Z"/>
  <path class="cls-1" d="M34.97,29.51V8.6h1.49l.22,2.63c2.14-1.75,4.45-2.63,6.95-2.63,3.29,0,5.42,.96,6.39,2.87,2.4-1.91,4.84-2.87,7.31-2.87,4.67,0,7.01,2.32,7.01,6.95v13.96h-2.09V15.55c0-3.39-1.65-5.08-4.94-5.08-2.63,0-4.8,.9-6.51,2.71V29.51h-2.09V15.22c0-3.16-1.7-4.74-5.1-4.74-2.47,0-4.65,.9-6.55,2.71V29.51h-2.09Z"/>
  <path class="cls-1" d="M80.7,29.51V1.04h2.09V10.87c2.44-1.51,4.95-2.27,7.51-2.27,5.08,0,7.63,2.6,7.63,7.79v13.12h-2.09V15.53c0-3.37-1.88-5.06-5.64-5.06-2.51,0-4.98,.88-7.41,2.65V29.51h-2.09Z"/>
  <path class="cls-1" d="M106.6,8.6V29.51h-2.09V8.6h2.09Zm.08-7.57h3.17l-4.76,4.76h-1.67l3.27-4.76Z"/>
  <path class="cls-1" d="M113.2,29.51V7.59c0-5.06,2.8-7.59,8.4-7.59,1.71,0,3.27,.27,4.66,.8v1.79c-1.31-.53-2.87-.8-4.68-.8-4.2,0-6.29,1.95-6.29,5.84v.98h7.87v1.79h-7.87V29.51h-2.09Z"/>
  <path class="cls-1" d="M135.48,8.6c5.72,0,8.58,3.17,8.58,9.5,0,.45-.01,.92-.04,1.41h-15.87c0,5.47,2.89,8.21,8.68,8.21,2.38,0,4.49-.33,6.33-1v1.79c-1.84,.66-3.96,1-6.33,1-7.18,0-10.77-3.56-10.77-10.69s3.14-10.22,9.42-10.22Zm-7.33,9.04h13.9c-.08-4.86-2.27-7.29-6.57-7.29-4.65,0-7.09,2.43-7.33,7.29Z"/>
  <path class="cls-1" d="M149.44,29.51V8.6h1.49l.26,2.67c2.67-1.78,5.28-2.67,7.85-2.67,5.08,0,7.63,2.2,7.63,6.59v14.32h-2.09V15.14c0-3.11-1.88-4.66-5.64-4.66-2.51,0-4.98,.88-7.41,2.65V29.51h-2.09Z"/>
  <path class="cls-1" d="M184.11,18.98c0,5.96,2.56,8.94,7.67,8.94s7.67-2.98,7.67-8.94-2.56-8.78-7.67-8.78-7.67,2.93-7.67,8.78Zm-2.09,.08c0-7.1,3.25-10.65,9.76-10.65s9.76,3.55,9.76,10.65-3.25,10.63-9.76,10.63-9.73-3.54-9.76-10.63Z"/>
  <path class="cls-1" d="M224.14,8.6V29.51h-1.53l-.24-2.67c-2.4,1.78-5.09,2.67-8.05,2.67-4.94,0-7.41-2.6-7.41-7.79V8.6h2.09v13.18c0,3.9,1.81,5.85,5.42,5.85,2.64,0,5.18-.88,7.63-2.65V8.6h2.09Z"/>
  <path class="cls-1" d="M240.49,29.51V8.6h1.49l.26,2.67c2.67-1.78,5.28-2.67,7.85-2.67,5.08,0,7.63,2.2,7.63,6.59v14.32h-2.09V15.14c0-3.11-1.88-4.66-5.64-4.66-2.51,0-4.98,.88-7.41,2.65V29.51h-2.09Z"/>
  <path class="cls-1" d="M262.92,23.6c0-4.16,2.76-6.23,8.29-6.23,1.95,0,4.04,.13,6.25,.4v-2.57c0-3.2-2.01-4.8-6.03-4.8-2.15,0-4.35,.33-6.61,1v-1.79c2.26-.66,4.46-1,6.61-1,5.42,0,8.13,2.16,8.13,6.49v14.42h-1.27l-.48-2.07c-2.62,1.38-5.15,2.07-7.61,2.07-4.85,0-7.27-1.97-7.27-5.91Zm8.29-4.44c-4.13,0-6.19,1.46-6.19,4.38s1.73,4.18,5.18,4.18c2.55,0,4.97-.68,7.27-2.03v-6.13c-2.22-.27-4.3-.4-6.25-.4Zm-4.14-17.21c.8-.61,1.66-.92,2.59-.92,.69,0,1.42,.17,2.19,.52,.77,.35,1.53,.52,2.27,.52,1,0,1.96-.31,2.91-.92v1.79c-.8,.61-1.66,.92-2.59,.92-.69,0-1.42-.17-2.19-.52-.77-.35-1.53-.52-2.27-.52-1,0-1.96,.31-2.91,.92V1.95Z"/>
  <path class="cls-1" d="M287.03,18.98c0,5.96,2.56,8.94,7.67,8.94s7.67-2.98,7.67-8.94-2.56-8.78-7.67-8.78-7.67,2.93-7.67,8.78Zm-2.09,.08c0-7.1,3.25-10.65,9.76-10.65s9.76,3.55,9.76,10.65-3.25,10.63-9.76,10.63-9.73-3.54-9.76-10.63Z"/>
  <path class="cls-1" d="M314.72,27.42v2.09h-2.09v-2.09h2.09Zm-5.87-25.39c2.79-.66,5.44-1,7.97-1,6.84,0,10.26,2.59,10.26,7.77s-3.3,7.77-9.9,7.77h-2.45v5.58h-2.09v-7.37h4.48c5.25,0,7.87-1.99,7.87-5.97s-2.72-5.97-8.17-5.97c-2.52,0-5.18,.33-7.97,1v-1.79Z"/>
</svg>